Coordinates
version=1
nRows=5
nColumns=40
inDegrees=yes

Units are S.I. units (second, meters, Newtons, ...)
If the header above contains a line with 'inDegrees', this indicates whether rotational values are in degrees (yes) or radians (no).

endheader
time	pelvis_tilt	pelvis_list	pelvis_rotation	pelvis_tx	pelvis_ty	pelvis_tz	hip_flexion_r	hip_adduction_r	hip_rotation_r	knee_angle_r	knee_angle_r_beta	ankle_angle_r	subtalar_angle_r	mtp_angle_r	hip_flexion_l	hip_adduction_l	hip_rotation_l	knee_angle_l	knee_angle_l_beta	ankle_angle_l	subtalar_angle_l	mtp_angle_l	lumbar_extension	lumbar_bending	lumbar_rotation	arm_flex_r	arm_add_r	arm_rot_r	elbow_flex_r	pro_sup_r	wrist_flex_r	wrist_dev_r	arm_flex_l	arm_add_l	arm_rot_l	elbow_flex_l	pro_sup_l	wrist_flex_l	wrist_dev_l
      1.70000000	      4.72083844	      3.34346119	     -2.42102763	      0.84947874	      1.08308504	     -0.49687375	     19.32771709	     -6.60422482	      0.39961526	     61.45139250	      1.07252913	     -3.26851048	      0.00000000	      0.00000000	     -0.93876043	      5.35817096	     -5.11937639	     11.90205891	      0.20773012	      6.22029164	      0.00000000	      0.00000000	    -17.95807409	     -0.96040846	     -2.71166031	    -14.90400497	     -6.27961468	    -24.09880442	     43.23313423	     82.25963727	      0.00000000	      0.00000000	     -1.52479938	     -8.94037786	    -11.26808355	     51.86265995	     79.84969039	      0.00000000	      0.00000000
      1.70833300	      4.89935841	      3.13517864	     -2.22377762	      0.84887102	      1.08388334	     -0.49697862	     19.79627761	     -6.40849464	     -0.05040122	     59.96919581	      1.04665992	     -2.80970541	      0.00000000	      0.00000000	     -2.20418179	      5.20294864	     -4.95095822	     11.06651370	      0.19314710	      6.29803793	      0.00000000	      0.00000000	    -18.24828486	     -0.63547678	     -2.90496875	    -15.34252976	     -6.15869784	    -24.40802306	     43.42274092	     82.30431785	      0.00000000	      0.00000000	     -1.07070019	     -9.06695936	    -11.01681484	     52.41935952	     79.83842569	      0.00000000	      0.00000000
      1.71666700	      5.03845228	      2.90085149	     -2.06715793	      0.84819045	      1.08453891	     -0.49692338	     20.23400570	     -6.11124297	     -0.39942872	     58.29111979	      1.01737197	     -2.40432151	      0.00000000	      0.00000000	     -3.38137403	      5.00476189	     -4.74806857	     10.31523038	      0.18003473	      6.40578440	      0.00000000	      0.00000000	    -18.51142481	     -0.31713524	     -3.05834040	    -15.72129210	     -6.03285845	    -24.63786672	     43.57153261	     82.25330625	      0.00000000	      0.00000000	     -0.65351349	     -9.17761456	    -10.79479668	     52.98947647	     79.79795350	      0.00000000	      0.00000000
      1.72500000	      4.93840951	      2.66529276	     -1.93859159	      0.84735129	      1.08469963	     -0.49675760	     20.93228234	     -5.69568748	     -0.53100178	     56.52393788	      0.98652882	     -2.02376966	      0.00000000	      0.00000000	     -4.19476749	      4.77936349	     -4.59641750	      9.73539139	      0.16991463	      6.60642347	      0.00000000	      0.00000000	    -18.49624683	     -0.01633499	     -3.21493093	    -16.05628862	     -5.93646336	    -24.76157445	     43.62498258	     82.12998207	      0.00000000	      0.00000000	     -0.29584183	     -9.28959718	    -10.61722177	     53.58390481	     79.74267413	      0.00000000	      0.00000000
      1.73333300	      5.17209519	      2.38702124	     -1.78468382	      0.84663972	      1.08526714	     -0.49671029	     21.08360821	     -5.29704447	     -0.78494089	     54.41628634	      0.94974336	     -1.74887889	      0.00000000	      0.00000000	     -5.47831569	      4.53366438	     -4.29999912	      8.96612346	      0.15648838	      6.64550174	      0.00000000	      0.00000000	    -18.87817638	      0.35423828	     -3.31956475	    -16.36997391	     -5.84482263	    -24.97761792	     43.73396849	     81.96209076	      0.00000000	      0.00000000	      0.15993281	     -9.36247338	    -10.39313741	     54.17997822	     79.67908958	      0.00000000	      0.00000000
